<svg version="1.2" xmlns="http://www.w3.org/2000/svg" viewBox="0 0 629 111" width="629" height="111">
	<style>
		.s0 { fill: #ffffff } 
		.s1 { fill: #ff6971 } 
	</style>
	<g id="Folder 1">
		<path id="astra" class="s0" aria-label="astra"  d="m108.6 108h-25.9l-3.7-31.2 4.1-11.4-4.1-11.3 3.7-31.4h25.9l-4.9 42.6zm-19.4-42.6q-2.4 13.5-8.9 23.7-6.3 10-16 15.6-9.6 5.6-21.6 5.6-12.5 0-22.1-5.6-9.5-5.7-15-15.7-5.3-10.3-5.3-23.6 0-13.5 5.3-23.5 5.5-10.2 15-15.8 9.6-5.7 22.1-5.7 12 0 21.6 5.7 9.7 5.5 16 15.6 6.6 10 8.9 23.7zm-63.5 0q0 7.5 3 13.2 3.1 5.7 8.4 9 5.5 3.2 12.6 3.2 7.1 0 13.2-3.2 6.4-3.3 11.1-9 4.8-5.7 7.4-13.2-2.6-7.5-7.4-13.2-4.7-5.8-11.1-9-6.1-3.2-13.2-3.2-7.1 0-12.6 3.2-5.3 3.2-8.4 9-3 5.7-3 13.2zm193.2 15.7q0 9.3-5.4 15.8-5.3 6.6-15.8 10.1-10.4 3.3-25.6 3.3-15.6 0-27.2-3.8-11.5-3.9-18-10.9-6.4-7.1-6.9-16.3h25.5q1 4.1 4.5 7.3 3.6 3 9.3 4.6 5.9 1.6 13.5 1.6 10.7 0 16.1-2.3 5.5-2.4 5.5-7.2 0-3.5-3.9-5.1-3.8-1.9-13.9-2.8l-15.9-1.3q-14.3-1.2-22.7-4.6-8.4-3.7-12-9.2-3.5-5.5-3.5-12.1 0-9.2 5.6-15.3 5.9-6.2 16.1-9.2 10.2-3.3 23.8-3.3 13.9 0 24.6 3.8 10.9 3.7 17.3 10.3 6.5 6.6 7.4 15.3h-25.5q-0.6-3.1-3.4-5.8-2.7-2.9-7.9-4.7-5.2-1.8-13.7-1.8-9.4 0-14.5 2.3-5.1 2.1-5.1 6.4 0 3 3.1 5 3.1 1.8 11.7 2.5l20.6 1.7q13.9 1.1 21.7 4.6 8 3.3 11.3 8.7 3.3 5.4 3.3 12.4zm21.6-39.6h-17.8v-11.1l17.8-5.8 10.7-24.5h14.4v22.6h37.8v18.8h-37.8v31.1q0 9.9 4.1 14 4.2 3.9 14.4 3.9 6.4 0 11.4-1.1 5-1.4 9.4-3.6v19.5q-4.3 1.8-11.5 3.5-7.2 1.5-14.9 1.5-13.3 0-21.7-4.2-8.4-4.3-12.3-11.9-4-7.8-4-18zm79.2 9.1l-5.4-28h25.4l5.1 30.8v54.5h-25.1zm66.6-28.9v21.6q-3.8-0.9-7.9-1.2-3.8-0.5-7.2-0.5-7.5 0-13.5 3.2-6 3-9.6 9.6-3.3 6.6-3.3 16.7l-5.2-6.4q0.8-9.1 3.3-17.1 2.4-8.1 6.6-14.1 4.3-6.2 10.6-9.6 6.4-3.5 15.1-3.5 2.7 0 5.6 0.4 3 0.2 5.5 0.9zm113.3 86.2h-26l-3.6-31.1 4-11.5-4-11.3 3.6-31.4h26l-5 42.7zm-19.4-42.7q-2.4 13.5-8.8 23.8-6.4 10-16.1 15.6-9.6 5.6-21.5 5.6-12.5 0-22.1-5.6-9.6-5.7-15-15.8-5.3-10.2-5.3-23.6 0-13.4 5.3-23.5 5.4-10.1 15-15.7 9.6-5.7 22.1-5.7 11.9 0 21.5 5.7 9.7 5.4 16.1 15.6 6.6 10 8.8 23.6zm-63.5 0q0 7.5 3.1 13.3 3.1 5.6 8.4 9 5.5 3.1 12.5 3.1 7.2 0 13.3-3.1 6.3-3.4 11.1-9 4.8-5.8 7.4-13.3-2.6-7.4-7.4-13.1-4.8-5.8-11.1-9-6.1-3.3-13.3-3.3-7 0-12.5 3.3-5.3 3.2-8.4 9-3.1 5.7-3.1 13.1z"/>
		<path id="+" class="s1" aria-label="+"  d="m581 107.3h-9.2v-103.7h9.2zm47.2-47.2h-103.6v-9.2h103.6z"/>
	</g>
</svg>